<svg id="Capa_1" data-name="Capa 1" xmlns="http://www.w3.org/2000/svg" viewBox="0 0 102.91 154.2"><defs><style>.cls-1,.cls-3{stroke:#fff;}.cls-1,.cls-2,.cls-3,.cls-4,.cls-5,.cls-8,.cls-9{stroke-miterlimit:10;}.cls-2,.cls-4,.cls-7{fill:#fff;}.cls-2,.cls-4,.cls-5,.cls-8,.cls-9{stroke:#1d1d1b;}.cls-3,.cls-6,.cls-8{fill:#1d1d1b;}.cls-4{stroke-width:0.75px;}.cls-5,.cls-9{fill:none;}.cls-9{stroke-width:0.25px;}</style></defs><title>burro</title><path class="cls-1" d="M-220.52,188.84c-1.78,2-2.41-1-2.85-1.43-1.22-1.34-1.3-1.84-2.35-3a7.3,7.3,0,0,1-2.25-3.72c-1.12-8.38-1.22-16.89-1.66-25.66a1.18,1.18,0,0,1,1.21-1.2h2.17a1.15,1.15,0,0,0,1.18-1.41c-1.77-6.42.8-11.87,3.63-15.47,0.88-1.12.78,1.62,1.38,0.63a13.23,13.23,0,0,1,2.87-3.49c0.77-.79-0.05,2.6,1.36,2.12,0.89-.3,1.47-2,2.63-3.28,0.56-.62-0.21,2.21.41,2a3.43,3.43,0,0,0,1.72-2.32c0.35-1.27,2.58-4.47,2.83-3.51,0.36,1.37,1.3,1.7,1.75,1.61,0.61-.11,1.7-1.37,3.25-2.62,5.42-4.38,43.43-5.68,41.83-3.42-3.17,4.5-1.84,6.91-1.58,6.92,5.71,0.12,1.5-7.12,5.13-1.25,1.11,1.81.75,5.33,2.13,5.75,2.17,0.67,1-4.25,2.21-2.46,0.35,0.54.83,2.69,1.29,3.17,0.29,0.3.29-1.62,1.38-.24,4,5.08,5.55,13.44,4,19.17a34.48,34.48,0,0,0-1.24,7.66c-0.27,6-.14,12-0.77,17.94-0.19,1.77-1.45,3.44-2.84,5.6-0.52.81-1.52,0.53-2.17-.17-8.2-8.79-6.14-14.89-9.26-21.53a11.57,11.57,0,0,0-5-4.92c-11-5.63-22.54-7.4-34.78-3.27-9.72,3.28-10.92,4.49-10.51,13.9a23,23,0,0,1-.17,3.48c-0.47,3.35-.52,5.21.35,6.25S-218.55,186.63-220.52,188.84Z" transform="translate(239.47 -123.11)"/><path class="cls-2" d="M-155.61,193.94s5.11-11.83,7.86-7c2,3.43-2.11,8.75-3.53,16.75,0,0-.87,3.42-0.14,5.33s-0.69,6.92-4.69,4.83S-155.61,193.94-155.61,193.94Z" transform="translate(239.47 -123.11)"/><path class="cls-2" d="M-220.92,190.77s-5-11.88-7.79-7.08c-2,3.41,2,8.77,3.36,16.78,0,0,.84,3.42.09,5.33s0.62,6.92,4.64,4.88S-220.92,190.77-220.92,190.77Z" transform="translate(239.47 -123.11)"/><path class="cls-3" d="M-137.19,254.27l-8.17,5.83a72.77,72.77,0,0,1-11.75,8.3c-20.76,11.72-41.62,9.07-55.53,4.74a77.32,77.32,0,0,1-16.61-7.21l-9.67-6c2.67-16.5,21.81-36.83,21.81-36.83s44.59-10,58.33,2.22S-137.19,254.27-137.19,254.27Z" transform="translate(239.47 -123.11)"/><path class="cls-4" d="M-157.11,268.4c-20.76,11.72-41.62,9.07-55.53,4.74a123.29,123.29,0,0,1-3.06-47.29s51-.08,54.86,3.59S-157.86,245.93-157.11,268.4Z" transform="translate(239.47 -123.11)"/><path class="cls-2" d="M-217.43,222.63s5.33,11.16,10.72,15.7c1.84,1.55,8.36,8.05,12.28,9,0,0,13.25,0,14.17-.17s5.83-1.92,14-11.17,8.82-16.6,9.08-18.33c0,0,2.53-9.51,2.6-28.75,0,0,.73-12.45-2.9-13.33s-4-8.56-6.88-15.67-12.76-9.15-31.24-7.92-17.81,6.73-19.08,11.42-0.62,9.52-4.67,10.92c0,0-1.83.29-1.5,15.25C-220.85,189.54-222.18,213.46-217.43,222.63Z" transform="translate(239.47 -123.11)"/><path class="cls-2" d="M-187.21,257.58l14.87-15.49a27,27,0,0,1-7.71,5.08s-9.42,0-14.17.17a18,18,0,0,1-5.15-2.72Z" transform="translate(239.47 -123.11)"/><path class="cls-5" d="M-192.17,252.53s-12.2,11.67-21.65,15.93" transform="translate(239.47 -123.11)"/><line class="cls-5" x1="57.72" y1="129.42" x2="78.11" y2="147.49"/><path class="cls-6" d="M-183.19,183.72s9.17-8.79,20.5-2.13c0,0,3.75,3.21-1.5,1.21s-13.75,1-15.17,2.25S-184.19,186.72-183.19,183.72Z" transform="translate(239.47 -123.11)"/><path class="cls-6" d="M-191.24,183.72s-9.17-8.79-20.5-2.13c0,0-3.75,3.21,1.5,1.21s13.75,1,15.17,2.25S-190.24,186.72-191.24,183.72Z" transform="translate(239.47 -123.11)"/><path class="cls-7" d="M-178.36,192.27s5.75-6.09,12.17-1.09C-166.19,191.18-167.69,197.27-178.36,192.27Z" transform="translate(239.47 -123.11)"/><path class="cls-7" d="M-208.69,191.4s6.53,5,12.38.52C-196.31,191.92-201.63,184.79-208.69,191.4Z" transform="translate(239.47 -123.11)"/><path class="cls-6" d="M-169.05,189.61c0.33,2.85-.76,3.4-3,3.48s-3.15-2.95-2.78-3.14A7.34,7.34,0,0,1-169.05,189.61Z" transform="translate(239.47 -123.11)"/><path class="cls-6" d="M-199.54,189.33a2.75,2.75,0,0,1-1,2.94,4.65,4.65,0,0,1-1.94.42c-2.25,0-2.66-2-2.85-3.53A6.12,6.12,0,0,1-199.54,189.33Z" transform="translate(239.47 -123.11)"/><circle class="cls-7" cx="69.3" cy="67.17" r="0.9"/><circle class="cls-7" cx="38.59" cy="67.07" r="0.9"/><path class="cls-6" d="M-165.86,191c-3.68-3.92-9.31-1.73-12.8,1.16-0.33.27,0.38,0.33,0.59,0.16,3.18-2.64,8.22-4.55,11.54-1,0.19,0.21.88-.07,0.67-0.3h0Z" transform="translate(239.47 -123.11)"/><path class="cls-6" d="M-196,191.78c-3.59-4.44-9.06-4.16-13-.42-0.29.28,0.42,0.22,0.57,0.08,2.83-2.69,6.39-3.53,9.68-1.26a9.88,9.88,0,0,1,2.07,1.88c0.14,0.17.83-.08,0.68-0.27h0Z" transform="translate(239.47 -123.11)"/><path class="cls-8" d="M-156,187.1V186s-1.85-.47-13.24-0.73-16.43,4.11-16.43,4.11h-2.25a40.33,40.33,0,0,0-15-4.2l-16-.08-7.11-3.85,0.68,2.43,6.43,5.43v1.07h1.54l0.59,1,1,6a11,11,0,0,0,1.68,4.39c3.93,5.81,11.37,4.62,17.08,3.89,6.5-.83,8.16-12.75,8.16-12.75h3.67c0.33,1,1.25,4,2.33,8s9,8.17,17.59,5.25,7.51-14.85,7.51-14.85l2.32-.39,5.67-4.69,0.18-1.64Zm-43.39,17c-3.78.48-8.91,1-12-2.08-1-1.06-3.59-5.84-3.12-11.61s23.17-4,23.06.56C-191.55,195.79-192.35,203.24-199.41,204.14Zm36.64-1.46c-3,3.25-8,2.67-11.75,2.17-6.94-.94-7.72-8.69-7.84-13.67-0.11-4.75,22.19-6.61,22.65-.58S-161.75,201.58-162.77,202.68Z" transform="translate(239.47 -123.11)"/><path class="cls-9" d="M-191.43,191c-0.12,4.78-.92,12.23-8,13.13-3.78.48-8.91,1-12-2.08-1-1.06-3.59-5.84-3.12-11.61S-191.32,186.45-191.43,191Z" transform="translate(239.47 -123.11)"/><path class="cls-9" d="M-162.77,202.68c-3,3.25-8,2.67-11.75,2.17-6.94-.94-7.72-8.69-7.84-13.67-0.11-4.75,22.19-6.61,22.65-.58S-161.75,201.58-162.77,202.68Z" transform="translate(239.47 -123.11)"/><ellipse class="cls-6" cx="81.85" cy="65.43" rx="1.5" ry="0.67"/><ellipse class="cls-6" cx="22.92" cy="64.36" rx="1.5" ry="0.67"/><path class="cls-6" d="M-178.39,205.24a13.43,13.43,0,0,1,.72,2.72,5.76,5.76,0,0,1-.17,2.84,2.64,2.64,0,0,1-.86,1.19,2.52,2.52,0,0,1-.66.36,3.08,3.08,0,0,1-.72.18,5.45,5.45,0,0,1-1.45,0,11.62,11.62,0,0,1-1.4-.3l0.24-.09a5.91,5.91,0,0,1-.87,1,6.32,6.32,0,0,1-1.05.78,5.78,5.78,0,0,1-1.21.51l-0.65.14-0.66,0c-0.22,0-.44,0-0.66-0.06a3.08,3.08,0,0,1-.64-0.14,3.57,3.57,0,0,1-.62-0.2l-0.59-.27a4.1,4.1,0,0,1-.56-0.33l-0.55-.34-1-.81,0.2,0.05a8.37,8.37,0,0,1-3.13.06,3.6,3.6,0,0,1-1.47-.63,2.34,2.34,0,0,1-.55-0.61,2.25,2.25,0,0,1-.3-0.76,4.09,4.09,0,0,1,0-1.58,7.91,7.91,0,0,1,.47-1.48,18.59,18.59,0,0,1,1.45-2.7,18.5,18.5,0,0,0-1.28,2.77,8.76,8.76,0,0,0-.38,1.46,3.81,3.81,0,0,0,0,1.46,1.93,1.93,0,0,0,.28.65,2,2,0,0,0,.48.51,3.22,3.22,0,0,0,1.33.51,8.23,8.23,0,0,0,3-.1l0.11,0,0.09,0.07,1,0.77,0.52,0.32a3.77,3.77,0,0,0,.53.3l0.56,0.24a3.15,3.15,0,0,0,.57.18,2.69,2.69,0,0,0,.59.12c0.2,0,.4.06,0.59,0.06l0.6,0L-186,214a5.32,5.32,0,0,0,1.11-.46,5.89,5.89,0,0,0,1.79-1.59l0.1-.13,0.15,0a11.2,11.2,0,0,0,1.34.3c0.23,0,.45.06,0.68,0.06a3.75,3.75,0,0,0,.67,0,2.71,2.71,0,0,0,.64-0.14,2.17,2.17,0,0,0,.58-0.29,2.32,2.32,0,0,0,.79-1,4.35,4.35,0,0,0,.29-1.32,8,8,0,0,0,0-1.39A13.35,13.35,0,0,0-178.39,205.24Z" transform="translate(239.47 -123.11)"/><ellipse class="cls-6" cx="58" cy="88.34" rx="1.47" ry="1.17"/><ellipse class="cls-6" cx="47.02" cy="88.34" rx="1.47" ry="1.17"/><circle class="cls-6" cx="86.09" cy="87.25" r="1.51"/><path class="cls-6" d="M-166.32,191.53a2.72,2.72,0,0,1-.22.52,3.72,3.72,0,0,1-.36.54,3.45,3.45,0,0,1-.6.6,5.32,5.32,0,0,1-.85.55,5.58,5.58,0,0,1-1.06.37,6.38,6.38,0,0,1-1.19.19,11,11,0,0,1-1.24,0c-0.41,0-.82-0.1-1.23-0.14s-0.79-.17-1.17-0.24c-0.76-.15-1.43-0.44-2-0.62s-1-.44-1.37-0.58l-0.52-.22,1.94,0.66c0.59,0.15,1.27.4,2,.54,0.37,0.07.76,0.18,1.15,0.23s0.8,0.11,1.2.12a10.77,10.77,0,0,0,1.21,0,6.16,6.16,0,0,0,1.15-.17,6.68,6.68,0,0,0,1-.33,5.15,5.15,0,0,0,.84-0.49,4.15,4.15,0,0,0,.62-0.54,3.64,3.64,0,0,0,.4-0.5A2.71,2.71,0,0,0-166.32,191.53Z" transform="translate(239.47 -123.11)"/><path class="cls-6" d="M-208.69,191.4a13.67,13.67,0,0,0,1.82,1,14.91,14.91,0,0,0,2,.75c0.36,0.13.76,0.19,1.15,0.3s0.8,0.14,1.21.17a8.22,8.22,0,0,0,1.22,0l0.6,0,0.58-.1a5.63,5.63,0,0,0,1.08-.25,4.45,4.45,0,0,0,.93-0.34c0.28-.14.55-0.24,0.77-0.36l0.55-.35,0.49-.3-0.46.34-0.53.39c-0.21.14-.47,0.26-0.75,0.41a4.57,4.57,0,0,1-.94.39l-0.53.18c-0.18,0-.38.07-0.57,0.11l-0.59.11-0.61,0a8.32,8.32,0,0,1-1.25,0c-0.42,0-.83-0.12-1.24-0.19s-0.8-.18-1.17-0.32a13,13,0,0,1-2-.83A11.46,11.46,0,0,1-208.69,191.4Z" transform="translate(239.47 -123.11)"/><polygon class="cls-8" points="52.21 129.42 57.72 129.42 65.98 136.74 58.67 145.49 45.78 145.49 38.74 136.74 42.23 133.94 47.3 129.42 52.21 129.42"/><polyline class="cls-8" points="45.78 153.59 45.78 145.49 58.67 145.49 59.1 153.11"/><ellipse class="cls-7" cx="60.01" cy="132.58" rx="0.69" ry="0.65"/><ellipse class="cls-7" cx="58.64" cy="131.19" rx="0.69" ry="0.65"/><ellipse class="cls-7" cx="61.49" cy="134.1" rx="0.69" ry="0.65"/><ellipse class="cls-7" cx="62.86" cy="135.41" rx="0.69" ry="0.65"/><ellipse class="cls-7" cx="57.46" cy="129.88" rx="0.49" ry="0.46"/><ellipse class="cls-7" cx="65" cy="137.76" rx="0.49" ry="0.46"/><ellipse class="cls-7" cx="64.03" cy="136.52" rx="0.49" ry="0.46"/><ellipse class="cls-7" cx="57.1" cy="133.15" rx="0.69" ry="0.65"/><ellipse class="cls-7" cx="55.73" cy="131.75" rx="0.69" ry="0.65"/><ellipse class="cls-7" cx="58.58" cy="134.67" rx="0.69" ry="0.65"/><ellipse class="cls-7" cx="59.95" cy="135.97" rx="0.69" ry="0.65"/><ellipse class="cls-7" cx="54.55" cy="130.44" rx="0.49" ry="0.46"/><ellipse class="cls-7" cx="62.09" cy="138.32" rx="0.49" ry="0.46"/><ellipse class="cls-7" cx="61.12" cy="137.08" rx="0.49" ry="0.46"/><ellipse class="cls-7" cx="53.81" cy="133.52" rx="0.69" ry="0.65"/><ellipse class="cls-7" cx="52.44" cy="132.12" rx="0.69" ry="0.65"/><ellipse class="cls-7" cx="55.29" cy="135.04" rx="0.69" ry="0.65"/><ellipse class="cls-7" cx="56.67" cy="136.35" rx="0.69" ry="0.65"/><ellipse class="cls-7" cx="51.27" cy="130.82" rx="0.49" ry="0.46"/><ellipse class="cls-7" cx="58.81" cy="138.7" rx="0.49" ry="0.46"/><ellipse class="cls-7" cx="57.84" cy="137.45" rx="0.49" ry="0.46"/><ellipse class="cls-7" cx="51.5" cy="134.64" rx="0.69" ry="0.65"/><ellipse class="cls-7" cx="50.13" cy="133.24" rx="0.69" ry="0.65"/><ellipse class="cls-7" cx="52.98" cy="136.16" rx="0.69" ry="0.65"/><ellipse class="cls-7" cx="54.35" cy="137.47" rx="0.69" ry="0.65"/><ellipse class="cls-7" cx="48.95" cy="131.94" rx="0.49" ry="0.46"/><ellipse class="cls-7" cx="56.49" cy="139.82" rx="0.49" ry="0.46"/><ellipse class="cls-7" cx="55.52" cy="138.58" rx="0.49" ry="0.46"/><ellipse class="cls-7" cx="48.59" cy="135.21" rx="0.69" ry="0.65"/><ellipse class="cls-7" cx="47.22" cy="133.81" rx="0.69" ry="0.65"/><ellipse class="cls-7" cx="50.07" cy="136.72" rx="0.69" ry="0.65"/><ellipse class="cls-7" cx="51.44" cy="138.03" rx="0.69" ry="0.65"/><ellipse class="cls-7" cx="46.04" cy="132.5" rx="0.49" ry="0.46"/><ellipse class="cls-7" cx="53.58" cy="140.38" rx="0.49" ry="0.46"/><ellipse class="cls-7" cx="52.61" cy="139.14" rx="0.49" ry="0.46"/><ellipse class="cls-7" cx="45.31" cy="135.58" rx="0.69" ry="0.65"/><ellipse class="cls-7" cx="43.93" cy="134.18" rx="0.69" ry="0.65"/><ellipse class="cls-7" cx="46.78" cy="137.1" rx="0.69" ry="0.65"/><ellipse class="cls-7" cx="48.16" cy="138.4" rx="0.69" ry="0.65"/><ellipse class="cls-7" cx="50.3" cy="140.75" rx="0.49" ry="0.46"/><ellipse class="cls-7" cx="49.33" cy="139.51" rx="0.49" ry="0.46"/><ellipse class="cls-7" cx="43.36" cy="136.98" rx="0.69" ry="0.65"/><ellipse class="cls-7" cx="41.99" cy="135.59" rx="0.69" ry="0.65"/><ellipse class="cls-7" cx="44.84" cy="138.5" rx="0.69" ry="0.65"/><ellipse class="cls-7" cx="46.21" cy="139.81" rx="0.69" ry="0.65"/><ellipse class="cls-7" cx="48.36" cy="142.16" rx="0.49" ry="0.46"/><ellipse class="cls-7" cx="47.39" cy="140.92" rx="0.49" ry="0.46"/><ellipse class="cls-7" cx="40.08" cy="137.35" rx="0.69" ry="0.65"/><ellipse class="cls-7" cx="41.56" cy="138.87" rx="0.69" ry="0.65"/><ellipse class="cls-7" cx="42.93" cy="140.18" rx="0.69" ry="0.65"/><ellipse class="cls-7" cx="45.07" cy="142.53" rx="0.49" ry="0.46"/><ellipse class="cls-7" cx="44.1" cy="141.29" rx="0.49" ry="0.46"/><ellipse class="cls-7" cx="46.98" cy="145.03" rx="0.49" ry="0.46"/><ellipse class="cls-7" cx="46.01" cy="143.79" rx="0.49" ry="0.46"/><ellipse class="cls-7" cx="50.55" cy="144.57" rx="0.49" ry="0.46"/><ellipse class="cls-7" cx="49.49" cy="143.35" rx="0.49" ry="0.46"/><ellipse class="cls-7" cx="57.6" cy="140.86" rx="0.49" ry="0.46"/><ellipse class="cls-7" cx="63.43" cy="139.6" rx="0.49" ry="0.46"/><ellipse class="cls-7" cx="58.81" cy="142.07" rx="0.49" ry="0.46"/><ellipse class="cls-7" cx="59.95" cy="143.08" rx="0.49" ry="0.46"/><ellipse class="cls-7" cx="48.04" cy="130.72" rx="0.49" ry="0.46"/><ellipse class="cls-7" cx="50.27" cy="129.68" rx="0.49" ry="0.46"/><ellipse class="cls-7" cx="56.75" cy="143.95" rx="0.49" ry="0.46"/><ellipse class="cls-7" cx="57.84" cy="145.03" rx="0.49" ry="0.46"/><ellipse class="cls-7" cx="59.95" cy="139.82" rx="0.49" ry="0.46"/><ellipse class="cls-7" cx="61.61" cy="141.22" rx="0.49" ry="0.46"/><ellipse class="cls-7" cx="52.78" cy="143.24" rx="0.49" ry="0.46"/><ellipse class="cls-7" cx="53.98" cy="144.57" rx="0.49" ry="0.46"/><ellipse class="cls-7" cx="51.52" cy="142" rx="0.49" ry="0.46"/><ellipse class="cls-7" cx="55.58" cy="142.62" rx="0.49" ry="0.46"/><ellipse class="cls-7" cx="54.38" cy="141.45" rx="0.49" ry="0.46"/><path class="cls-6" d="M-150,189.38a20.45,20.45,0,0,1-.32,3,18.32,18.32,0,0,1-.78,3,13.53,13.53,0,0,1-.71,1.63,5.73,5.73,0,0,0-.52,1.65,20.19,20.19,0,0,0-.21,3.51,15.55,15.55,0,0,1-.08,1.65,3.29,3.29,0,0,1-.43,1.47,1.12,1.12,0,0,1-.57.44,1.65,1.65,0,0,1-.62.08,0.7,0.7,0,0,1-.51-0.24,0.86,0.86,0,0,1-.16-0.44,2.54,2.54,0,0,1,0-.62l0-.22v0.22a2.91,2.91,0,0,0,.06.61,0.56,0.56,0,0,0,.59.51,1.09,1.09,0,0,0,1-.49,3,3,0,0,0,.31-1.35c0-.51,0-1.06,0-1.62a20.56,20.56,0,0,1,.15-3.6,6,6,0,0,1,.59-1.78,13.08,13.08,0,0,0,.72-1.57,23.64,23.64,0,0,0,.91-2.94C-150.18,190.58-150,189.38-150,189.38Z" transform="translate(239.47 -123.11)"/><path class="cls-6" d="M-225.78,188.66s0.18,1.21.6,3a23.63,23.63,0,0,0,.91,2.94,13.1,13.1,0,0,0,.72,1.57,6,6,0,0,1,.59,1.78,20.56,20.56,0,0,1,.15,3.6c0,0.57,0,1.11,0,1.62a3,3,0,0,0,.31,1.35,1.09,1.09,0,0,0,1,.49,0.56,0.56,0,0,0,.59-0.51,2.92,2.92,0,0,0,.06-0.61v-0.22l0,0.22a2.54,2.54,0,0,1,0,.62,0.86,0.86,0,0,1-.16.44,0.7,0.7,0,0,1-.51.24,1.65,1.65,0,0,1-.62-0.08,1.12,1.12,0,0,1-.57-0.44,3.29,3.29,0,0,1-.43-1.47,15.55,15.55,0,0,1-.08-1.65,20.18,20.18,0,0,0-.21-3.51,5.73,5.73,0,0,0-.52-1.65,13.54,13.54,0,0,1-.71-1.63,18.3,18.3,0,0,1-.78-3A20.44,20.44,0,0,1-225.78,188.66Z" transform="translate(239.47 -123.11)"/><path class="cls-6" d="M-190.26,229l1.08,0.12,1.06,0.08c0.38,0,.79,0,1.19,0s0.81,0,1.19,0l1.06-.09,0.78-.07h0.31l-0.24.2a3.69,3.69,0,0,1-.69.44,5,5,0,0,1-1.08.41,6.14,6.14,0,0,1-1.33.17,5.73,5.73,0,0,1-1.33-.15,4.58,4.58,0,0,1-1.09-.4A3.07,3.07,0,0,1-190.26,229Z" transform="translate(239.47 -123.11)"/><path class="cls-6" d="M-199.37,223.19l1.07,0,1.21,0h0.74c0.26,0,.52.1,0.81,0.12,1.12,0.16,2.44.32,3.85,0.42a40.25,40.25,0,0,0,4.43.07,68.91,68.91,0,0,0,8.31-.49,9.81,9.81,0,0,1,1.51-.19,8.82,8.82,0,0,0,1.17-.2,7,7,0,0,0,.74-0.21l0.26-.09-0.21.18a4.4,4.4,0,0,1-.65.47,9.35,9.35,0,0,1-1.11.57,4.63,4.63,0,0,1-1.55.46,69.52,69.52,0,0,1-8.44.5,41.31,41.31,0,0,1-4.53-.08c-1.44-.1-2.78-0.26-3.92-0.43-0.28-.05-0.56-0.06-0.82-0.12l-0.72-.23c-0.45-.15-0.84-0.29-1.16-0.41C-199,223.35-199.37,223.19-199.37,223.19Z" transform="translate(239.47 -123.11)"/></svg>