<svg id="Capa_1" data-name="Capa 1" xmlns="http://www.w3.org/2000/svg" viewBox="0 0 564.35 120.85"><defs><style>.cls-1{fill:red;}.cls-2,.cls-3{fill:#fff;}.cls-2,.cls-4{stroke:#fff;stroke-miterlimit:10;}.cls-4{fill:none;}</style></defs><title>youtube</title><path class="cls-1" d="M21.55,225.95H138s16.63,0,18.63,18.63,0,69.2,0,69.2-3.33,18.63-19.29,19.29-115.77,0-115.77,0-10.65-1.33-15.3-17.3,0-75.18,0-75.18S5.58,225.95,21.55,225.95Z" transform="translate(-4.18 -212.51)"/><polygon class="cls-2" points="61.95 38.72 61.95 95.09 101.21 67.14 61.95 38.72"/><polygon class="cls-3" points="165.74 21.42 184.37 71.32 184.37 113.24 201.67 113.24 201.67 71.32 220.97 21.42 199.68 21.42 193.36 49.37 187.03 21.42 165.74 21.42"/><path class="cls-3" d="M246.22,253.44l-11.07-.21s-13.79-2.66-14.69,18.63v42.58a13.49,13.49,0,0,0,10,11.28c9.31,2.66,20,0,20,0s10-3.3,10-13.31V271.86S262.19,250.78,246.22,253.44ZM244,311.56s-0.8,4.63-3.51,5.32a8.53,8.53,0,0,1-4.47,0s-2.87.21-2.45-5.32-0.05-42.37-.05-42.37,1.17-3.09,2.71-2.66a13.17,13.17,0,0,0,4.26,0s3.73,0.21,3.51,2.66S244,311.56,244,311.56Z" transform="translate(-4.18 -212.51)"/><path class="cls-2" d="M270.61,258.55v64.09s-0.22,3.1,2.66,3.1h31.94a3.33,3.33,0,0,0,2.44-3.55c-0.22-2.88,0-63.65,0-63.65H294.34v56.11l-10.87.22V258.55H270.61Z" transform="translate(-4.18 -212.51)"/><path class="cls-4" d="M244,311.56s-0.8,4.63-3.51,5.32a8.53,8.53,0,0,1-4.47,0s-2.87.21-2.45-5.32-0.05-42.37-.05-42.37,1.17-3.09,2.71-2.66a13.17,13.17,0,0,0,4.26,0s3.73,0.21,3.51,2.66S244,311.56,244,311.56Z" transform="translate(-4.18 -212.51)"/><polygon class="cls-2" points="300.81 21.42 300.81 32.73 317 32.73 317 111.91 330.53 111.91 330.53 32.95 346.72 32.73 346.72 21.42 300.81 21.42"/><path class="cls-2" d="M345.13,258.55v58.77s0,6.43,2.44,7.1,37.26,0,37.26,0,2.44,0,2.44-2.22V258.55H371.08L372,311.78s-1.11,4.88-3.1,3.55h-5.32a3,3,0,0,1-2.88-3.55c0.44-3.33,0-53.23,0-53.23H345.13Z" transform="translate(-4.18 -212.51)"/><path class="cls-2" d="M435.71,263.45s-0.75-8.46-8.94-8h-4.9s-4.15-1.12-5.16,6l-8.36.21,0.21-32.36H397.71L399.25,328h31s6.23,2.24,5.32-16.61S435.71,263.45,435.71,263.45Zm-14.05,47.9c-0.48,4-5,3.09-5,3.09a19.21,19.21,0,0,1-5.27,0c-2.45-.43-2.24-3.09-2.24-3.09s-0.21-32.63,0-37,2.93-6.23,7.5-5.54,5,4,5,4S422.09,307.36,421.66,311.35Z" transform="translate(-4.18 -212.51)"/><path class="cls-2" d="M482.39,295.6V269.41s-1.54-13.09-12.61-13.31l-11.07-.21s-11.34-1-12.24,12.72V317.1s3.35,9.47,12.46,7.61L470.21,325s7.35,0.75,12.19-8.09v-9.26H470.21l-0.21,7H458.44l0.69-18.84Zm-22.83-24c1.81-6.87,2-4,5.43-5.11s5.43,5.32,5.43,5.32v15.33H459.56S457.8,278.51,459.56,271.64Z" transform="translate(-4.18 -212.51)"/><line class="cls-4" x1="529.46" y1="16.54" x2="506.18" y2="16.76"/><polyline class="cls-4" points="529.46 0.8 506.18 0.8 506.18 16.76 506.18 32.29 529.46 32.29"/><path class="cls-4" d="M568,237c0,8-4.66,8.87-4.66,8.87H549.61c-6.88,0-7.32-8.65-7.32-8.65v-16s0.44-7.32,7.32-8a107.58,107.58,0,0,1,15.52,0s3.1,0,2.88,7.54" transform="translate(-4.18 -212.51)"/></svg>